<?xml version="1.0" encoding="UTF-8" standalone="no"?>
<!-- Creator: fig2dev Version 3.2.8b -->
<!-- CreationDate: 2023-06-26 21:11:58 -->
<!-- Magnification: 1.05 -->
<svg	xmlns="http://www.w3.org/2000/svg"
	xmlns:xlink="http://www.w3.org/1999/xlink"
	width="326pt" height="326pt"
	viewBox="118 118 5164 5164">
<g fill="none">
<!-- Line -->
<rect x="225" y="225" width="4950" height="4950" rx="450" fill="#00d1d1"
	stroke="#00b0b0" stroke-width="135px"/>
<!-- Arc -->
<path d="M 900,1800 A 2738 2738 0 0 1 4500 1800"
	stroke="#ffd600" stroke-width="435px" stroke-linecap="round"/>
<!-- Line -->
<polyline points=" 1800,2475 2250,2925 2700,2475 3150,2925 3600,2475"
	stroke="#ffffff" stroke-width="435px" stroke-linejoin="round" stroke-linecap="round"/>
<!-- Line -->
<polyline points=" 1800,2475 1800,2476 1799,2480 1798,2486 1796,2495 1793,2509 1789,2527 1784,2549
 1779,2575 1772,2606 1765,2640 1757,2678 1748,2718 1739,2761 1729,2805 1719,2850
 1708,2895 1698,2940 1688,2984 1677,3026 1667,3068 1657,3108 1647,3146 1637,3183
 1627,3218 1617,3251 1607,3283 1597,3314 1586,3345 1575,3375 1564,3405 1552,3435
 1539,3465 1526,3496 1513,3527 1499,3558 1485,3589 1470,3620 1455,3652 1440,3684
 1424,3716 1409,3749 1393,3781 1377,3814 1361,3846 1344,3878 1328,3910 1312,3942
 1296,3974 1280,4005 1264,4035 1248,4065 1232,4094 1216,4123 1201,4150 1185,4177
 1170,4203 1155,4228 1140,4252 1125,4275 1106,4302 1087,4329 1067,4354 1046,4379
 1024,4404 1001,4429 977,4454 951,4480 924,4506 896,4532 868,4557 840,4583 813,4607
 786,4630 762,4651 740,4669 722,4686 706,4699 694,4709 685,4716 680,4721 676,4724
 675,4725"
	stroke="#ffffff" stroke-width="435px" stroke-linejoin="bevel" stroke-linecap="round"/>
<!-- Line -->
<polyline points=" 3600,2475 3600,2476 3601,2480 3602,2486 3604,2495 3607,2509 3611,2527 3616,2549
 3621,2575 3628,2606 3635,2640 3643,2678 3652,2718 3661,2761 3671,2805 3681,2850
 3692,2895 3702,2940 3712,2984 3723,3026 3733,3068 3743,3108 3753,3146 3763,3183
 3773,3218 3783,3251 3793,3283 3803,3314 3814,3345 3825,3375 3836,3405 3848,3435
 3861,3465 3874,3496 3887,3527 3901,3558 3915,3589 3930,3620 3945,3652 3960,3684
 3976,3716 3991,3749 4007,3781 4023,3814 4039,3846 4056,3878 4072,3910 4088,3942
 4104,3974 4120,4005 4136,4035 4152,4065 4168,4094 4184,4123 4199,4150 4215,4177
 4230,4203 4245,4228 4260,4252 4275,4275 4294,4302 4313,4329 4333,4354 4354,4379
 4376,4404 4399,4429 4423,4454 4449,4480 4476,4506 4504,4532 4532,4557 4560,4583
 4587,4607 4614,4630 4638,4651 4660,4669 4678,4686 4694,4699 4706,4709 4715,4716
 4720,4721 4724,4724 4725,4725"
	stroke="#ffffff" stroke-width="435px" stroke-linejoin="bevel" stroke-linecap="round"/>
</g>
</svg>
