<?xml version="1.0" encoding="UTF-8" standalone="no"?>
<!-- Creator: fig2dev Version 3.2.8b -->
<!-- CreationDate: 2023-06-14 16:27:10 -->
<!-- Magnification: 1.05 -->
<svg	xmlns="http://www.w3.org/2000/svg"
	xmlns:xlink="http://www.w3.org/1999/xlink"
	width="326pt" height="326pt"
	viewBox="118 118 5164 5164">
<g fill="none">
<!-- Line -->
<rect x="225" y="225" width="4950" height="4950" rx="450" fill="#00d1d1"
	stroke="#00b0b0" stroke-width="135px"/>
<!-- Arc -->
<path d="M 900,1800 A 2738 2738 0 0 1 4500 1800"
	stroke="#ffd600" stroke-width="435px" stroke-linecap="round"/>
<!-- Line -->
<polyline points=" 1800,2250 2250,2700 2700,2250 3150,2700 3600,2250"
	stroke="#ffffff" stroke-width="435px" stroke-linejoin="round" stroke-linecap="round"/>
<!-- Line -->
<polyline points=" 1800,2250 1800,2252 1799,2255 1798,2262 1796,2272 1794,2287 1791,2306 1787,2330
 1782,2359 1776,2393 1770,2432 1763,2474 1755,2521 1747,2570 1738,2621 1729,2674
 1719,2727 1710,2781 1700,2834 1690,2887 1681,2938 1671,2987 1662,3035 1652,3080
 1643,3124 1633,3165 1624,3204 1615,3241 1605,3276 1595,3310 1585,3343 1575,3375
 1564,3409 1552,3442 1539,3474 1526,3507 1513,3539 1499,3571 1485,3603 1470,3635
 1455,3667 1440,3699 1424,3731 1409,3762 1393,3794 1377,3825 1361,3857 1344,3888
 1328,3919 1312,3949 1296,3979 1280,4009 1264,4039 1248,4068 1232,4096 1216,4124
 1201,4151 1185,4178 1170,4203 1155,4228 1140,4252 1125,4275 1106,4302 1087,4329
 1067,4354 1046,4379 1024,4404 1001,4429 977,4454 951,4480 924,4506 896,4532 868,4557
 840,4583 813,4607 786,4630 762,4651 740,4669 722,4686 706,4699 694,4709 685,4716
 680,4721 676,4724 675,4725"
	stroke="#ffffff" stroke-width="435px" stroke-linejoin="bevel" stroke-linecap="round"/>
<!-- Line -->
<polyline points=" 3600,2250 3600,2252 3601,2255 3602,2262 3604,2272 3606,2287 3609,2306 3613,2330
 3618,2359 3624,2393 3630,2432 3637,2474 3645,2521 3653,2570 3662,2621 3671,2674
 3681,2727 3690,2781 3700,2834 3710,2887 3719,2938 3729,2987 3738,3035 3748,3080
 3757,3124 3767,3165 3776,3204 3785,3241 3795,3276 3805,3310 3815,3343 3825,3375
 3836,3409 3848,3442 3861,3474 3874,3507 3887,3539 3901,3571 3915,3603 3930,3635
 3945,3667 3960,3699 3976,3731 3991,3762 4007,3794 4023,3825 4039,3857 4056,3888
 4072,3919 4088,3949 4104,3979 4120,4009 4136,4039 4152,4068 4168,4096 4184,4124
 4199,4151 4215,4178 4230,4203 4245,4228 4260,4252 4275,4275 4294,4302 4313,4329
 4333,4354 4354,4379 4376,4404 4399,4429 4423,4454 4449,4480 4476,4506 4504,4532
 4532,4557 4560,4583 4587,4607 4614,4630 4638,4651 4660,4669 4678,4686 4694,4699
 4706,4709 4715,4716 4720,4721 4724,4724 4725,4725"
	stroke="#ffffff" stroke-width="435px" stroke-linejoin="bevel" stroke-linecap="round"/>
</g>
</svg>
